<?xml version="1.0" encoding="UTF-8"?><svg xmlns="http://www.w3.org/2000/svg" viewBox="0 0 73.77 75"><defs><style>.d{stroke-linecap:round;}.d,.e{fill:none;stroke:#000;stroke-miterlimit:10;stroke-width:2px;}</style></defs><g id="a"/><g id="b"><g id="c"><g><line class="e" x1="13.09" y1="1.1" x2="13.09" y2="28.56"/><line class="e" x1="37.38" y1="1.1" x2="37.38" y2="43.49"/><path class="e" d="M37.38,43.49c-6.13,0-11.09,5.61-11.09,12.54,0,.61,.05,1.2,.13,1.79h8.85s.67,0,2.11,0h10.96c.07-.59,.13-1.18,.13-1.79,0-6.92-4.97-12.54-11.09-12.54Z"/><path class="e" d="M12.09,28.67c-6.13,0-11.09,5.61-11.09,12.54,0,.61,.05,1.2,.13,1.79H9.98s.67,0,2.11,0h10.96c.07-.59,.13-1.18,.13-1.79,0-6.92-4.97-12.54-11.09-12.54Z"/><line class="e" x1="61.68" y1="1.1" x2="61.68" y2="59.67"/><path class="e" d="M61.68,59.67c-6.13,0-11.09,5.61-11.09,12.54,0,.61,.05,1.2,.13,1.79h8.85s.67,0,2.11,0h10.96c.07-.59,.13-1.18,.13-1.79,0-6.92-4.97-12.54-11.09-12.54Z"/><line class="d" x1="4.66" y1="1" x2="69.66" y2="1"/></g></g></g></svg>