<?xml version="1.0" encoding="UTF-8"?><svg id="Layer_2" xmlns="http://www.w3.org/2000/svg" viewBox="0 0 77 77"><defs><style>.cls-1{fill:#383d3f;}.cls-1,.cls-2{stroke-linecap:round;}.cls-1,.cls-2,.cls-3{stroke:#000;stroke-miterlimit:10;stroke-width:2px;}.cls-2,.cls-3{fill:none;}</style></defs><g id="Layer_1-2"><g><circle class="cls-2" cx="38.5" cy="32.65" r="8.35"/><circle class="cls-1" cx="50.2" cy="45.02" r="1.67"/><circle class="cls-2" cx="38.5" cy="32.65" r="10.69"/><path class="cls-2" d="M27.12,14.27c-3.85,0-7,3.15-7,7v22.76c0,3.85,2.01,7,4.46,7s7.13-1.35,10.39-3.01h7.04c3.26,1.65,7.94,3.01,10.39,3.01s4.46-3.15,4.46-7V21.27c0-3.85-3.15-7-7-7H27.12Z"/><path class="cls-2" d="M30,50.36c6.78,3.01,6.78,12.36,6.78,12.36"/><path class="cls-2" d="M47,50.36c-6.78,3.01-6.78,12.36-6.78,12.36"/></g><circle class="cls-3" cx="38.5" cy="38.5" r="37.5"/></g></svg>