<svg xmlns="http://www.w3.org/2000/svg" viewBox="0 0 57 74.5"><defs><style>.cls-1{fill:none;}.cls-1,.cls-2{stroke:#383d3f;stroke-linecap:round;stroke-miterlimit:10;stroke-width:2px;}.cls-2{fill:#383d3f;}</style></defs><g id="Layer_2" data-name="Layer 2"><g id="Layer_1-2" data-name="Layer 1"><circle class="cls-1" cx="28.5" cy="28.5" r="12.5"/><circle class="cls-2" cx="46" cy="47" r="2.5"/><circle class="cls-1" cx="28.5" cy="28.5" r="16"/><path class="cls-1" d="M8,1A7,7,0,0,0,1,8V49a6.87,6.87,0,0,0,6.68,7A33.91,33.91,0,0,0,20.6,52.83s2.63-1.33,7.9-1.33,7.9,1.33,7.9,1.33A33.91,33.91,0,0,0,49.32,56,6.87,6.87,0,0,0,56,49V8a7,7,0,0,0-7-7Z"/><path class="cls-1" d="M15.78,55c10.14,4.5,10.14,18.5,10.14,18.5"/><path class="cls-1" d="M41.22,55C31.08,59.5,31.08,73.5,31.08,73.5"/></g></g></svg>