
<svg xmlns="http://www.w3.org/2000/svg" viewBox="0 0 54 26"><defs><style>.cls-1,.cls-2{fill:none;stroke:#383d3f;stroke-miterlimit:10;stroke-width:2px;}.cls-2{stroke-linecap:round;}</style></defs><g id="Layer_2" data-name="Layer 2"><g id="Layer_1-2" data-name="Layer 1"><rect class="cls-1" x="1" y="1" width="52" height="24" rx="1"/><path class="cls-1" d="M8.5,7.5a1,1,0,0,0-1,1V13a2.79,2.79,0,0,0,.71,1.71l3.08,3.08A2.79,2.79,0,0,0,13,18.5H41a2.79,2.79,0,0,0,1.71-.71l3.08-3.08A2.79,2.79,0,0,0,46.5,13V8.5a1,1,0,0,0-1-1Z"/><line class="cls-2" x1="14" y1="13" x2="40" y2="13"/></g></g></svg>