<?xml version="1.0" encoding="UTF-8"?><svg xmlns="http://www.w3.org/2000/svg" viewBox="0 0 80 80"><defs><style>.d{stroke-linecap:round;}.d,.e{fill:none;}.d,.e,.f{stroke:#000;stroke-miterlimit:10;stroke-width:2px;}</style></defs><g id="a"/><g id="b"><g id="c"><line class="d" x1="40" y1="1" x2="40" y2="12"/><line class="d" x1="68" y1="40" x2="79" y2="40"/><line class="d" x1="67.89" y1="67.89" x2="60.11" y2="60.11"/><line class="d" x1="19.89" y1="19.89" x2="12.11" y2="12.11"/><line class="d" x1="60.11" y1="19.89" x2="67.89" y2="12.11"/><line class="d" x1="12.11" y1="67.89" x2="19.89" y2="60.11"/><line class="d" x1="1" y1="40" x2="12" y2="40"/><line class="d" x1="40" y1="68" x2="40" y2="79"/><path class="e" d="M58.44,28c-3.92-6.02-10.72-10-18.44-10s-14.52,3.98-18.44,10H58.44Z"/><path class="f" d="M62,40c0-4.43-1.31-8.55-3.56-12H21.56c-2.25,3.45-3.56,7.57-3.56,12,0,12.15,9.85,22,22,22s22-9.85,22-22Z"/></g></g></svg>