<?xml version="1.0" encoding="UTF-8"?><svg id="Layer_2" xmlns="http://www.w3.org/2000/svg" viewBox="0 0 77 77"><defs><style>.cls-1{stroke-linecap:round;}.cls-1,.cls-2{fill:none;}.cls-1,.cls-2,.cls-3{stroke:#000;stroke-miterlimit:10;stroke-width:2px;}</style></defs><g id="Layer_1-2"><g><line class="cls-1" x1="38.5" y1="13.5" x2="38.5" y2="20.55"/><line class="cls-1" x1="56.45" y1="38.5" x2="63.5" y2="38.5"/><line class="cls-1" x1="56.38" y1="56.38" x2="51.39" y2="51.39"/><line class="cls-1" x1="25.61" y1="25.61" x2="20.62" y2="20.62"/><line class="cls-1" x1="51.39" y1="25.61" x2="56.38" y2="20.62"/><line class="cls-1" x1="20.62" y1="56.38" x2="25.61" y2="51.39"/><line class="cls-1" x1="13.5" y1="38.5" x2="20.55" y2="38.5"/><line class="cls-1" x1="38.5" y1="56.45" x2="38.5" y2="63.5"/><path class="cls-3" d="M50.32,46.19c-2.51,3.86-6.87,6.41-11.82,6.41s-9.31-2.55-11.82-6.41h23.64Z"/><path class="cls-2" d="M52.6,38.5c0,2.84-.84,5.48-2.28,7.69H26.68c-1.44-2.21-2.28-4.85-2.28-7.69,0-7.79,6.31-14.1,14.1-14.1s14.1,6.31,14.1,14.1Z"/></g><circle class="cls-2" cx="38.5" cy="38.5" r="37.5"/></g></svg>