<?xml version="1.0" encoding="UTF-8"?><svg id="Layer_2" xmlns="http://www.w3.org/2000/svg" viewBox="0 0 77 77"><defs><style>.cls-1{stroke-linecap:round;}.cls-1,.cls-2{fill:none;}.cls-1,.cls-2,.cls-3{stroke:#000;stroke-miterlimit:10;stroke-width:2px;}</style></defs><g id="Layer_1-2"><g><line class="cls-1" x1="38.5" y1="13" x2="38.5" y2="20.05"/><line class="cls-1" x1="56.45" y1="38" x2="63.5" y2="38"/><line class="cls-1" x1="56.38" y1="55.88" x2="51.39" y2="50.89"/><line class="cls-1" x1="25.61" y1="25.11" x2="20.62" y2="20.12"/><line class="cls-1" x1="51.39" y1="25.11" x2="56.38" y2="20.12"/><line class="cls-1" x1="20.62" y1="55.88" x2="25.61" y2="50.89"/><line class="cls-1" x1="13.5" y1="38" x2="20.55" y2="38"/><line class="cls-1" x1="38.5" y1="55.95" x2="38.5" y2="63"/><path class="cls-3" d="M52.6,38c0,7.79-6.31,14.1-14.1,14.1s-14.1-6.31-14.1-14.1h28.21Z"/><path class="cls-2" d="M52.6,38H24.4c0-7.79,6.31-14.1,14.1-14.1s14.1,6.31,14.1,14.1Z"/></g><circle class="cls-2" cx="38.5" cy="38.5" r="37.5"/></g></svg>