<?xml version="1.0" encoding="UTF-8"?><svg xmlns="http://www.w3.org/2000/svg" viewBox="0 0 46.64 53"><defs><style>.d{stroke-linecap:round;}.d,.e{fill:none;stroke:#000;stroke-miterlimit:10;stroke-width:2px;}</style></defs><g id="a"/><g id="b"><g id="c"><path class="e" d="M22.62,12.63c-.79,.77-1.43,1.39-1.43,1.39s-.9-.02-2-.02l-16-.13c-1.1,0-2.01,.88-2.02,1.98l-.17,19.75c0,1.1,.88,2.01,1.98,2.02l16,.13c1.1,0,2,.01,2,0s.64,.63,1.41,1.41l11.06,11.11c.78,.78,1.42,.52,1.43-.58l.4-47.37c0-1.1-.63-1.37-1.42-.61l-11.25,10.93Z"/><line class="d" x1="4.64" y1="1" x2="45.64" y2="52"/></g></g></svg>