<?xml version="1.0" encoding="utf-8"?>
<!-- Generator: Adobe Illustrator 26.3.1, SVG Export Plug-In . SVG Version: 6.00 Build 0)  -->
<svg version="1.1" id="Layer_1" xmlns="http://www.w3.org/2000/svg" xmlns:xlink="http://www.w3.org/1999/xlink" x="0px" y="0px"
	 viewBox="0 0 63 58" style="enable-background:new 0 0 63 58;" xml:space="preserve">
<style type="text/css">
	.st0{fill:none;stroke:#000000;stroke-width:2;stroke-miterlimit:10;}
	.st1{fill:none;stroke:#000000;stroke-miterlimit:10;}
	.st2{fill:none;stroke:#000000;stroke-width:2;stroke-linecap:round;stroke-miterlimit:10;}
</style>
<g id="a">
</g>
<g id="b">
	<g id="c">
		<g>
			<g id="d">
				<g id="e">
					<path class="st0" d="M8,1h47c3.9,0,7,3.1,7,7v34c0,3.9-3.1,7-7,7H8c-3.9,0-7-3.1-7-7V8C1,4.1,4.1,1,8,1z"/>
					<g>
						<g>
							<path class="st1" d="M12,10h27c1.7,0,3,1.3,3,3v16c0,1.7-1.3,3-3,3H12c-1.7,0-3-1.3-3-3V13C9,11.3,10.3,10,12,10z"/>
							<path class="st1" d="M12,10h27c1.7,0,3,1.3,3,3v16c0,1.7-1.3,3-3,3H12c-1.7,0-3-1.3-3-3V13C9,11.3,10.3,10,12,10z"/>
						</g>
						<line class="st1" x1="9.5" y1="12" x2="42" y2="12"/>
					</g>
				</g>
			</g>
			<line class="st2" x1="31.5" y1="49" x2="31.5" y2="56.6"/>
			<line class="st2" x1="26" y1="57" x2="37" y2="57"/>
		</g>
	</g>
</g>
</svg>
