<?xml version="1.0" encoding="UTF-8"?><svg xmlns="http://www.w3.org/2000/svg" viewBox="0 0 69.03 61.44"><defs><style>.d{fill:none;stroke:#383d3f;stroke-miterlimit:10;stroke-width:2px;}</style></defs><g id="a"/><g id="b"><g id="c"><path class="d" d="M22.62,17.42c-.79,.77-1.43,1.39-1.43,1.39s-.9-.02-2-.02l-16-.13c-1.1,0-2.01,.88-2.02,1.98l-.17,19.75c0,1.1,.88,2.01,1.98,2.02l16,.13c1.1,0,2,.01,2,0s.64,.63,1.41,1.41l11.06,11.11c.78,.78,1.42,.52,1.43-.58l.4-47.37c0-1.1-.63-1.37-1.42-.61l-11.25,10.93Z"/><path class="d" d="M42.11,44.86c2.48-3.93,3.92-8.59,3.92-13.58,0-5.32-1.64-10.27-4.43-14.36"/><path class="d" d="M49.41,51.05c3.86-5.62,6.12-12.44,6.12-19.77s-2.47-14.77-6.65-20.53"/><path class="d" d="M57.98,60.83c6.31-8.37,10.05-18.77,10.05-30.05s-3.78-21.79-10.15-30.18"/></g></g></svg>