<?xml version="1.0" encoding="UTF-8"?><svg id="Layer_2" xmlns="http://www.w3.org/2000/svg" viewBox="0 0 77 77"><defs><style>.cls-1{stroke-linecap:round;}.cls-1,.cls-2{fill:none;stroke:#000;stroke-miterlimit:10;stroke-width:2px;}</style></defs><g id="Layer_1-2"><g><path class="cls-2" d="M28.19,28.54c-.79,.77-1.43,1.39-1.43,1.39s-.9-.01-2-.02l-10.39-.09c-1.1,0-2.01,.88-2.02,1.98l-.11,13.08c0,1.1,.88,2.01,1.98,2.02l10.39,.09c1.1,0,2,.01,2,.01s.64,.63,1.41,1.41l7.17,7.2c.78,.78,1.42,.52,1.43-.58l.28-32.96c0-1.1-.63-1.37-1.42-.61l-7.29,7.08Z"/><path class="cls-1" d="M46.13,48.68c1.78-2.83,2.82-6.18,2.82-9.77,0-3.83-1.18-7.39-3.19-10.33"/><path class="cls-1" d="M51.38,53.13c2.78-4.04,4.4-8.95,4.4-14.22s-1.78-10.63-4.78-14.77"/><path class="cls-1" d="M57.55,60.16c4.54-6.02,7.23-13.5,7.23-21.62s-2.72-15.68-7.3-21.71"/></g><circle class="cls-2" cx="38.5" cy="38.5" r="37.5"/></g></svg>