<?xml version="1.0" encoding="utf-8"?>
<!-- Generator: Adobe Illustrator 26.2.1, SVG Export Plug-In . SVG Version: 6.00 Build 0)  -->
<svg version="1.1" id="Layer_1" xmlns="http://www.w3.org/2000/svg" xmlns:xlink="http://www.w3.org/1999/xlink" x="0px" y="0px"
	 viewBox="0 0 240 240" style="enable-background:new 0 0 240 240;" xml:space="preserve">
<style type="text/css">
	.st0{fill-rule:evenodd;clip-rule:evenodd;fill:#D0D0D0;fill-opacity:0.7;}
	.st1{fill:none;stroke:#000000;stroke-width:8;}
</style>
<g id="Galaxy-S8_x2B_">
	<g id="Start" transform="translate(-2498.000000, -1282.000000)">
		<g id="Help" transform="translate(2498.000000, 1282.000000)">
			<circle id="Oval" class="st0" cx="120" cy="120" r="120"/>
			<g id="icons_x2F_custom_x2F_questionMark" transform="translate(83.000000, 39.000000)">
				<path id="Path" class="st1" d="M53.1,78.1c-10.7,12.7-13.2,31-13.2,31c-0.4,2.8-0.6,6.4-0.4,8.1s-2,3-4.8,3h-9.1
					c-2.8,0-5.2-1.4-5.3-3.2s0-5.4,0.3-8.2c0,0,2.4-22.5,14.5-37.1c11-12.9,17-22.4,17-33.3c0-12.4-7.8-20.7-23.1-20.9
					c-8.8,0-20,5.4-20,5.4c-2.5,1.2-5.4,0.1-6.4-2.6l-2.2-5.9c-1-2.6,0.3-5.6,2.8-6.8c0,0,17.3-7.7,30.2-7.7C61.3,0,74,17.3,74,35.8
					C74,52.3,64.7,64.2,53.1,78.1L53.1,78.1z"/>
				<path id="Path_00000089542124965280957790000012977118353904172685_" class="st1" d="M27.7,162c-8.3,0-14.1-6.6-14.1-15.1
					c0-9,6.1-15.3,14.3-15.3c8.8,0,14.3,6.3,14.3,15.3C42.3,155.4,36.6,162,27.7,162L27.7,162z"/>
			</g>
		</g>
	</g>
</g>
</svg>
