<?xml version="1.0" encoding="utf-8"?>
<!-- Generator: Adobe Illustrator 26.2.1, SVG Export Plug-In . SVG Version: 6.00 Build 0)  -->
<svg version="1.1" id="Layer_1" xmlns="http://www.w3.org/2000/svg" xmlns:xlink="http://www.w3.org/1999/xlink" x="0px" y="0px"
	 viewBox="0 0 1056 1056" style="enable-background:new 0 0 1056 1056;" xml:space="preserve">
<style type="text/css">
	.st0{fill-rule:evenodd;clip-rule:evenodd;fill:#98CA97;}
	.st1{fill:#111111;}
	.st2{font-family:'TeleNeo-Medium';}
	.st3{font-size:80px;}
	.st4{fill:none;stroke:#000000;stroke-width:8;}
	.st5{fill:none;stroke:#000000;stroke-width:8;stroke-linecap:round;}
</style>
<g id="Galaxy-S8_x2B_">
	<g id="Start" transform="translate(-290.000000, 84.000000)">
		<g id="Light" transform="translate(290.000000, -84.000000)">
			<circle id="Oval" class="st0" cx="528" cy="528" r="528"/>
			<text transform="matrix(1 0 0 1 308.4401 723.248)" class="st1 st2 st3">Light settings</text>
			<g id="icons_x2F_custom_x2F_screen-copy" transform="translate(412.000000, 349.240000)">
				<line id="Path" class="st4" x1="35.9" y1="3.2" x2="35.9" y2="92.2"/>
				<line id="Path_00000125586690567575979350000014221135903395767221_" class="st4" x1="114.6" y1="3.2" x2="114.6" y2="140.6"/>
				<path id="Path_00000089565682392054853380000010227148818892320141_" class="st4" d="M114.6,140.6c-19.8,0-35.9,18.2-35.9,40.6
					c0,1.9,0.2,3.9,0.4,5.8h71.1c0.2-1.9,0.4-3.9,0.4-5.8C150.6,158.8,134.5,140.6,114.6,140.6z"/>
				<path id="Path_00000089576541232843075240000003513266610128739988_" class="st4" d="M35.9,93.1C16.2,93.1,0,111.2,0,133.6
					c0,2,0.1,3.9,0.4,5.8h71.1c0.2-1.9,0.4-3.9,0.4-5.8C71.9,111.2,55.8,93.1,35.9,93.1z"/>
				<line id="Path_00000013902226793631825540000009662427385746034602_" class="st4" x1="193.4" y1="3.2" x2="193.4" y2="193"/>
				<path id="Path_00000127722936192232928780000001298128421557730180_" class="st4" d="M193.4,193c-19.9,0-35.9,18.2-35.9,40.6
					c0,1.9,0.1,3.9,0.4,5.8h71.1c0.3-1.9,0.4-3.9,0.4-5.8C229.3,211.2,213.2,193,193.4,193z"/>
				<line id="Line-3" class="st5" x1="14.6" y1="1.6" x2="215.5" y2="1.6"/>
			</g>
		</g>
	</g>
</g>
</svg>
