<?xml version="1.0" encoding="utf-8"?>
<!-- Generator: Adobe Illustrator 26.2.1, SVG Export Plug-In . SVG Version: 6.00 Build 0)  -->
<svg version="1.1" id="Layer_1" xmlns="http://www.w3.org/2000/svg" xmlns:xlink="http://www.w3.org/1999/xlink" x="0px" y="0px"
	 viewBox="0 0 1086 696" style="enable-background:new 0 0 1086 696;" xml:space="preserve">
<style type="text/css">
	.st0{fill-rule:evenodd;clip-rule:evenodd;fill:#BA68C1;}
	.st1{font-family:'TeleNeo-Medium';}
	.st2{font-size:80px;}
	.st3{fill:none;stroke:#000000;stroke-width:8;}
	.st4{fill:none;stroke:#000000;stroke-width:8;stroke-linecap:round;}
</style>
<g id="Galaxy-S8_x2B_">
	<g id="Start" transform="translate(-195.000000, -1099.000000)">
		<g id="Sound" transform="translate(195.000000, 1099.000000)">
			<path id="Rectangle" class="st0" d="M31,0h1024c17.1,0,31,13.9,31,31v634c0,17.1-13.9,31-31,31H31c-17.1,0-31-13.9-31-31V31
				C0,13.9,13.9,0,31,0z"/>
			<text transform="matrix(1 0 0 1 444.7603 503.8031)" class="st1 st2">Sound</text>
			<g id="icons_x2F_custom_x2F_sound" transform="translate(407.000000, 124.000000)">
				<path id="Path" class="st3" d="M87.9,68.4c-3.2,3.1-5.8,5.7-5.8,5.7s-3.7-0.1-8.1-0.1L8.9,73.4c-4.5,0-8.2,3.6-8.2,8.1L0,161.8
					c0,4.5,3.6,8.2,8.1,8.2l65.1,0.5c4.5,0,8.1,0,8.1,0s2.6,2.6,5.7,5.7l45,45.2c3.2,3.2,5.8,2.1,5.8-2.4l1.6-192.6
					c0-4.5-2.6-5.6-5.8-2.5L87.9,68.4L87.9,68.4z"/>
				<path id="Path_00000180343165570060550300000004606198581018785161_" class="st4" d="M167.2,180c10.1-16,15.9-34.9,15.9-55.2
					c0-21.6-6.7-41.8-18-58.4"/>
				<path id="Path_00000067942543969593922120000013054329326459656870_" class="st4" d="M196.9,205.2
					c15.7-22.9,24.9-50.6,24.9-80.4s-10-60.1-27-83.5"/>
				<path id="Path_00000108300577153090781210000005875274541431036838_" class="st4" d="M231.7,244.9c25.7-34,40.9-76.3,40.9-122.2
					S257.2,34.1,231.3,0"/>
			</g>
		</g>
	</g>
</g>
</svg>
