<?xml version="1.0" encoding="utf-8"?>
<!-- Generator: Adobe Illustrator 26.2.1, SVG Export Plug-In . SVG Version: 6.00 Build 0)  -->
<svg version="1.1" id="Layer_1" xmlns="http://www.w3.org/2000/svg" xmlns:xlink="http://www.w3.org/1999/xlink" x="0px" y="0px"
	 viewBox="0 0 1196 759" style="enable-background:new 0 0 1196 759;" xml:space="preserve">
<style type="text/css">
	.st0{fill-rule:evenodd;clip-rule:evenodd;fill:#74A7D0;}
	.st1{fill:#111111;}
	.st2{font-family:'TeleNeo-Medium';}
	.st3{font-size:80px;}
	.st4{fill:none;stroke:#000000;stroke-width:8;}
	.st5{fill:none;stroke:#000000;stroke-width:8;stroke-linecap:square;}
	.st6{fill:none;stroke:#000000;stroke-width:8;stroke-linecap:round;}
</style>
<g id="Galaxy-S8_x2B_">
	<g id="Start" transform="translate(-1422.000000, -139.000000)">
		<g id="Video" transform="translate(1422.000000, 139.000000)">
			<path id="Rectangle" class="st0" d="M71,0h1051c17.1,0,31,13.9,31,31v697c0,17.1-13.9,31-31,31H71c-17.1,0-31-13.9-31-31V31
				C40,13.9,53.9,0,71,0z"/>
			<text transform="matrix(1 0 0 1 374.7603 586.5716)" class="st1 st2 st3">Video sources</text>
			<g id="icons_x2F_custom_x2F_screen" transform="translate(447.000000, 156.000000)">
				<g id="Asset-49">
					<g id="Group">
						<path id="Rectangle_00000145770229528931440360000003108832715490148254_" class="st4" d="M7,0h285.5c3.9,0,7,3.1,7,7v221.6
							c0,3.9-3.1,7-7,7H7c-3.9,0-7-3.1-7-7V7C0,3.1,3.1,0,7,0z"/>
					</g>
					<g id="Group_00000080205052392458599960000001071984700531268486_" transform="translate(39.272727, 44.181818)">
						<path id="Rectangle_00000021838587267686347020000003265740746637693119_" class="st4" d="M3,0h156c1.7,0,3,1.3,3,3v102
							c0,1.7-1.3,3-3,3H3c-1.7,0-3-1.3-3-3V3C0,1.3,1.3,0,3,0z"/>
						<line id="Path" class="st4" x1="2.5" y1="9.8" x2="162" y2="9.8"/>
					</g>
				</g>
				<line id="Line" class="st5" x1="147.3" y1="235.6" x2="147.3" y2="260.2"/>
				<line id="Line-Copy" class="st6" x1="117.8" y1="265.1" x2="176.7" y2="265.1"/>
			</g>
		</g>
	</g>
</g>
</svg>
